<?xml version="1.0" encoding="utf-8"?>
<!-- Generator: Adobe Illustrator 27.5.0, SVG Export Plug-In . SVG Version: 6.00 Build 0)  -->
<svg version="1.1" xmlns="http://www.w3.org/2000/svg" xmlns:xlink="http://www.w3.org/1999/xlink" x="0px" y="0px"
	 viewBox="0 0 500 500" style="enable-background:new 0 0 500 500;" xml:space="preserve">
<g id="BACKGROUND">
	<g>
		<defs>
			<path id="rect3283_2_" d="M0.862,0h498.277C499.614,0,500,0.386,500,0.862v498.277c0,0.476-0.386,0.862-0.862,0.862H0.862
				C0.386,500,0,499.614,0,499.138V0.862C0,0.386,0.386,0,0.862,0z"/>
		</defs>
		<clipPath id="rect3283_00000181781933798361653400000017699470159429389201_">
			<use xlink:href="#rect3283_2_"  style="overflow:visible;"/>
		</clipPath>
		<g id="layer1" style="clip-path:url(#rect3283_00000181781933798361653400000017699470159429389201_);">
			<path id="rect3283" style="fill:#FFE7DC;" d="M0.862,0h498.277C499.614,0,500,0.386,500,0.862v498.277
				c0,0.476-0.386,0.862-0.862,0.862H0.862C0.386,500,0,499.614,0,499.138V0.862C0,0.386,0.386,0,0.862,0z"/>
			<circle id="circle3285" style="fill:#FFCBB3;" cx="250" cy="254.88" r="213.268"/>
			<g id="g3292" transform="matrix(0.72965702,-0.54697082,0.54697082,0.72965702,-136.33251,142.24433)">
				<path id="path3288" style="fill:#FFB998;" d="M-74.69,387.484c0,0-5.517,19.999-0.224,44.792l20.302-4.498l-17.762,14.048
					c2.828,8.809,7.159,17.955,13.651,26.831c3.891,5.32,7.819,9.815,11.726,13.618l22.984-10.193l-15.884,16.397
					c17.828,13.896,34.468,14.745,44.373,15.519L2.56,478.723l11.246,26.161c11.229-0.073,27.489-6.146,27.489-6.146
					s-0.201-24.05-8.478-48.977l-16.906,4.786l14.351-11.825c-4.86-12.258-11.857-24.201-21.937-33.058
					c-3.238-2.845-6.657-5.339-10.186-7.531l-19.458,14.228l13.402-17.654c-10.232-5.24-21.045-8.234-30.921-9.898l-12.469,13.418
					l5.683-14.38C-62.187,385.917-74.69,387.484-74.69,387.484L-74.69,387.484z"/>
				<path id="path3290" style="fill:#EC9982;" d="M-74.69,387.484c0,0-0.011,0.047-0.011,0.049
					c2.948,2.702,86.451,79.298,115.979,110.779c-0.015-1.189-0.397-24.264-8.461-48.551l-16.906,4.785l14.351-11.825
					c-4.86-12.258-11.857-24.2-21.937-33.058c-3.238-2.845-6.657-5.339-10.186-7.531l-19.458,14.228l13.402-17.654
					c-10.232-5.24-21.045-8.234-30.921-9.898l-12.469,13.418l5.683-14.38c-16.56-1.929-29.063-0.362-29.063-0.362L-74.69,387.484z"
					/>
			</g>
			<g id="g3298" transform="matrix(-0.72965702,-0.54697082,-0.54697082,0.72965702,269.78793,142.24433)">
				<path id="path3294" style="fill:#FFB998;" d="M-400.169,143.495c0,0-5.517,19.999-0.224,44.792l20.302-4.498l-17.762,14.048
					c2.828,8.809,7.159,17.955,13.651,26.831c3.891,5.32,7.819,9.815,11.726,13.618l22.984-10.193l-15.884,16.397
					c17.828,13.896,34.468,14.745,44.373,15.519l-1.916-25.274l11.246,26.161c11.229-0.073,27.489-6.146,27.489-6.146
					s-0.201-24.05-8.478-48.977l-16.906,4.786l14.351-11.825c-4.86-12.258-11.857-24.201-21.937-33.058
					c-3.238-2.845-6.657-5.339-10.186-7.531l-19.458,14.228l13.401-17.654c-10.232-5.24-21.045-8.234-30.921-9.898l-12.469,13.418
					l5.683-14.38C-387.666,141.928-400.169,143.495-400.169,143.495L-400.169,143.495z"/>
				<path id="path3296" style="fill:#EC9982;" d="M-400.169,143.495c0,0-0.011,0.047-0.011,0.049
					c2.948,2.702,86.451,79.298,115.979,110.779c-0.015-1.189-0.397-24.264-8.461-48.551l-16.906,4.785l14.351-11.825
					c-4.86-12.258-11.857-24.2-21.937-33.058c-3.238-2.845-6.657-5.339-10.186-7.531l-19.458,14.228l13.401-17.654
					c-10.232-5.239-21.045-8.234-30.921-9.898l-12.469,13.418l5.683-14.38c-16.56-1.929-29.064-0.362-29.064-0.362H-400.169z"/>
			</g>
			<g id="g3304" transform="matrix(0.73982514,0.6249745,-0.10923557,0.89312391,-67.195535,-73.136163)">
				<path id="path3300" style="fill:#FFB998;" d="M258.591,243.637c0,0-5.517,19.999-0.224,44.792l20.302-4.498l-17.762,14.047
					c2.828,8.809,7.159,17.955,13.651,26.831c3.891,5.32,7.819,9.815,11.726,13.618l22.984-10.193l-15.884,16.397
					c17.827,13.896,34.468,14.745,44.373,15.519l-1.916-25.273l11.246,26.161c11.229-0.073,27.489-6.146,27.489-6.146
					s-0.201-24.05-8.478-48.977l-16.906,4.785l14.351-11.825c-4.86-12.258-11.857-24.201-21.937-33.058
					c-3.238-2.845-6.657-5.339-10.186-7.531l-19.458,14.228l13.402-17.654c-10.232-5.239-21.045-8.234-30.921-9.898l-12.469,13.418
					l5.683-14.38C271.094,242.07,258.591,243.637,258.591,243.637L258.591,243.637z"/>
				<path id="path3302" style="fill:#EC9982;" d="M258.591,243.637c0,0-0.011,0.047-0.011,0.049
					c2.948,2.702,86.451,79.298,115.979,110.779c-0.015-1.189-0.397-24.264-8.461-48.551l-16.906,4.785l14.351-11.825
					c-4.86-12.258-11.857-24.201-21.937-33.058c-3.238-2.845-6.657-5.339-10.186-7.531l-19.458,14.228l13.401-17.654
					c-10.232-5.24-21.045-8.234-30.921-9.898l-12.469,13.418l5.683-14.38c-16.56-1.929-29.064-0.362-29.064-0.362L258.591,243.637z"
					/>
			</g>
			<g id="g3310" transform="matrix(-0.73982514,0.6249745,0.10923557,0.89312391,200.65096,-73.136163)">
				<path id="path3306" style="fill:#FFB998;" d="M-195.849,561.637c0,0-5.517,19.999-0.225,44.792l20.302-4.498l-17.762,14.047
					c2.828,8.809,7.159,17.955,13.651,26.831c3.891,5.32,7.819,9.815,11.726,13.618l22.984-10.193l-15.884,16.397
					c17.827,13.896,34.468,14.745,44.373,15.519l-1.916-25.273l11.246,26.161c11.229-0.073,27.489-6.146,27.489-6.146
					s-0.201-24.05-8.478-48.977l-16.906,4.785l14.351-11.825c-4.859-12.258-11.857-24.201-21.937-33.058
					c-3.238-2.845-6.657-5.339-10.186-7.531l-19.458,14.228l13.402-17.654c-10.232-5.239-21.045-8.234-30.921-9.898l-12.469,13.418
					l5.683-14.38C-183.346,560.07-195.849,561.637-195.849,561.637L-195.849,561.637z"/>
				<path id="path3308" style="fill:#EC9982;" d="M-195.849,561.637c0,0-0.011,0.047-0.011,0.049
					c2.948,2.702,86.451,79.298,115.979,110.779c-0.015-1.189-0.397-24.264-8.461-48.551l-16.906,4.785l14.351-11.825
					c-4.86-12.258-11.857-24.201-21.937-33.058c-3.238-2.845-6.657-5.339-10.186-7.531l-19.458,14.228l13.401-17.654
					c-10.232-5.24-21.045-8.234-30.921-9.898l-12.469,13.418l5.683-14.38C-183.345,560.07-195.848,561.637-195.849,561.637
					L-195.849,561.637z"/>
			</g>
			<g id="g3321" transform="matrix(0.72965702,-0.54697082,0.54697082,0.72965702,-151.63295,156.79073)">
				<path id="path3313" style="fill:#FFB998;" d="M27.239,281.033C1.219,281.194-17.4,304.005-10.06,332.8l22.082-2.435
					L-7.02,341.687c0.577,1.349,1.204,2.706,1.897,4.071c8.215,16.183,18.044,32.252,26.809,47.718l16.545-4.655l-13.25,10.546
					c9.12,16.52,16.6,32.259,19.019,46.573c4.945,29.264,6.923,38.314,16.731,43.655c9.808,5.341,13.764-4.339,18.05-21.957
					c0,0,3.88-11.708,7.007-30.056l-13.519-7.035l14.475,1.017c2.366-15.977,3.919-35.97,2.174-57.321
					c-0.845-10.342-2.505-20.269-4.863-29.552l-25.221,6.11l22.083-16.866c-10.117-30.347-28.362-51.53-50.765-52.826
					C29.173,281.052,28.201,281.027,27.239,281.033L27.239,281.033z"/>
				<path id="path3315" style="fill:#C5654A;" d="M58.672,501.909c0,0,8.242-58.158,0.412-99.44
					c-7.83-41.282-23.078-75.702-29.425-89.722c-6.346-14.02-14.506-24.888-14.506-24.888s24.479,29.301,39.81,85.271
					c15.33,55.97,9.808,128.148,9.808,128.148L58.672,501.909z"/>
				<path id="path3317" style="fill:#C5654A;" d="M64.574,469.433c0,0-3.155-5.463-7.103-8.322
					c-3.948-2.859-10.199-2.728-10.199-2.728s6.528-0.046,9.908,0.905c3.38,0.951,6.192,2.518,6.192,2.518l0.29-13.54
					c0,0-2.433-3.573-7.285-5.849c-4.852-2.275-10.986-0.879-10.986-0.879s5.61-2.046,9.398-1.436
					c3.788,0.61,8.363,3.219,8.363,3.219l-0.359-16.107c0,0-3.672-3.18-10.301-3.967c-6.629-0.787-11.802,1.515-11.802,1.515
					s6.688-2.983,11.54-2.937c4.852,0.046,10.578,2.662,10.578,2.662l-2.058-15.757c0,0-4.502-2.623-11.933-3.265
					s-15.211,2.78-15.211,2.78s6.79-4.078,13.55-4.859c6.761-0.78,13.04,1.239,13.04,1.239s-3.569-17.469-5.609-23.809
					c-2.04-6.34-2.885-11.815-2.885-11.815s-6.426-0.341-17.091,0.026c-10.665,0.367-19.451,5.862-19.451,5.862
					s8.422-5.672,15.138-7.147c6.717-1.475,20.792-0.984,20.792-0.984s-4.066-13.172-5.305-17.204
					c-1.238-4.032-3.293-8.504-3.293-8.504s-7.067-2.203-17.207-0.505c-10.141,1.698-24.551,11.743-24.551,11.743
					s12.574-9.881,21.433-12.812c8.859-2.931,18.883-2.033,18.883-2.033s-4.239-11.749-5.813-15.348
					c-1.574-3.6-3.759-7.055-3.759-7.055s-9.631,0.216-19.495,1.659c-9.864,1.442-21.957,9.507-21.957,9.507
					s11.365-7.783,19.83-10.537c8.465-2.754,20.34-2.865,20.34-2.865s6.061-6.688,13.434-12.005
					c7.373-5.317,13.725-6.963,13.725-6.963s-17.892,9.547-22.001,15.172c-4.109,5.626-3.264,6.157-3.264,6.157l9.832,21.932
					c0,0,6.848-6.373,16.042-11.605c9.194-5.232,15.721-4.78,15.721-4.78s-12.53,4.157-20.617,10.983
					c-8.087,6.826-9.558,9.402-9.558,9.402l8.571,25.089c0,0,3.38-3.069,13.113-7.573c9.733-4.505,21.025-3.232,21.025-3.232
					s-9.165,0.229-18.898,4.15c-9.733,3.921-14.119,8.786-14.119,8.786l7.496,35.182c0,0,6.697-3.075,15.163-4.852
					c8.465-1.777,12.822,0.656,12.822,0.656s-5.07-1.233-12.997,0.977c-7.926,2.21-14.41,7.514-14.41,7.514l1.6,16.246
					c0,0,7.941-2.813,14.818-3.364c6.877-0.551,9.15,1.272,9.15,1.272s-2.841-1.403-12.428,0.662
					c-9.587,2.065-11.452,3.777-11.452,3.777l1.008,16.586c0,0,4.138-1.974,9.981-2.026c5.843-0.053,9.675,2.996,9.675,2.996
					s-3.104-2.557-9.383-1.862c-6.28,0.695-9.952,4.616-9.952,4.616l0.376,14.259c0,0,4.459-1.541,8.844-1.738
					c4.386-0.197,6.382,1.174,6.382,1.174s-5.158-0.177-9.514,0.977c-4.357,1.154-6.265,3.128-6.265,3.128L64.574,469.433z"/>
				<path id="path3319" style="opacity:0.5895;fill:#D66154;enable-background:new    ;" d="M27.239,281.033
					c-4.41,0.027-8.6,0.72-12.494,1.967c10.566,18.204,31.432,57.652,39.847,98.502c7.319,35.529,8.664,80.877,8.681,109.146
					c7.981,2.403,11.617-7.009,15.51-23.011c0,0,3.88-11.708,7.007-30.056l-13.519-7.035l14.475,1.017
					c2.366-15.977,3.919-35.97,2.175-57.321c-0.845-10.341-2.505-20.269-4.863-29.552l-25.221,6.111l22.083-16.866
					c-10.117-30.347-28.362-51.53-50.765-52.826C29.173,281.053,28.201,281.027,27.239,281.033L27.239,281.033z"/>
			</g>
			<g id="g3331" transform="matrix(-0.72965702,-0.54697082,-0.54697082,0.72965702,285.08837,156.79073)">
				<path id="path3323" style="fill:#FFB998;" d="M-298.241,37.044c-26.02,0.161-44.639,22.972-37.299,51.767l22.082-2.435
					l-19.042,11.322c0.577,1.349,1.204,2.706,1.897,4.071c8.215,16.183,18.044,32.252,26.809,47.718l16.545-4.655l-13.249,10.546
					c9.12,16.52,16.6,32.259,19.019,46.573c4.945,29.264,6.923,38.314,16.731,43.655c9.808,5.341,13.764-4.339,18.05-21.957
					c0,0,3.88-11.708,7.007-30.056l-13.519-7.035l14.475,1.017c2.366-15.977,3.919-35.97,2.174-57.321
					c-0.845-10.342-2.505-20.269-4.863-29.552l-25.221,6.111l22.082-16.866c-10.117-30.347-28.362-51.53-50.765-52.826
					C-296.307,37.064-297.279,37.038-298.241,37.044L-298.241,37.044z"/>
				<path id="path3325" style="fill:#C5654A;" d="M-266.807,257.92c0,0,8.242-58.158,0.412-99.44
					c-7.83-41.282-23.078-75.702-29.424-89.722c-6.346-14.02-14.506-24.888-14.506-24.888s24.479,29.302,39.81,85.271
					c15.33,55.97,9.808,128.148,9.808,128.148L-266.807,257.92z"/>
				<path id="path3327" style="fill:#C5654A;" d="M-260.906,225.444c0,0-3.155-5.463-7.103-8.321
					c-3.948-2.859-10.199-2.728-10.199-2.728s6.528-0.046,9.908,0.905c3.38,0.951,6.192,2.518,6.192,2.518l0.29-13.54
					c0,0-2.433-3.573-7.285-5.849c-4.852-2.275-10.986-0.879-10.986-0.879s5.61-2.046,9.398-1.436
					c3.788,0.61,8.363,3.219,8.363,3.219l-0.359-16.107c0,0-3.672-3.18-10.301-3.967c-6.629-0.787-11.802,1.515-11.802,1.515
					s6.688-2.983,11.54-2.937c4.852,0.046,10.578,2.662,10.578,2.662l-2.058-15.757c0,0-4.502-2.623-11.933-3.265
					c-7.431-0.642-15.211,2.78-15.211,2.78s6.79-4.078,13.55-4.859c6.761-0.78,13.04,1.239,13.04,1.239s-3.569-17.469-5.609-23.809
					c-2.04-6.34-2.885-11.815-2.885-11.815s-6.425-0.341-17.091,0.026c-10.665,0.367-19.451,5.862-19.451,5.862
					s8.422-5.672,15.138-7.147c6.717-1.475,20.792-0.983,20.792-0.983s-4.066-13.172-5.305-17.204
					c-1.238-4.032-3.293-8.504-3.293-8.504s-7.067-2.203-17.207-0.505c-10.141,1.698-24.551,11.743-24.551,11.743
					s12.574-9.881,21.433-12.812c8.859-2.931,18.883-2.033,18.883-2.033s-4.239-11.749-5.813-15.349
					c-1.574-3.6-3.759-7.055-3.759-7.055s-9.631,0.216-19.495,1.659c-9.864,1.443-21.957,9.507-21.957,9.507
					s11.365-7.783,19.83-10.537c8.465-2.754,20.34-2.865,20.34-2.865s6.061-6.688,13.434-12.005
					c7.373-5.317,13.725-6.963,13.725-6.963s-17.892,9.547-22.001,15.172c-4.109,5.626-3.264,6.157-3.264,6.157l9.832,21.932
					c0,0,6.848-6.373,16.042-11.605s15.721-4.78,15.721-4.78s-12.53,4.157-20.617,10.983c-8.087,6.826-9.558,9.402-9.558,9.402
					l8.571,25.089c0,0,3.38-3.069,13.113-7.573c9.733-4.505,21.025-3.232,21.025-3.232s-9.165,0.229-18.898,4.15
					c-9.733,3.921-14.119,8.786-14.119,8.786l7.496,35.182c0,0,6.697-3.075,15.163-4.852c8.465-1.777,12.822,0.656,12.822,0.656
					s-5.07-1.233-12.997,0.977c-7.926,2.21-14.41,7.514-14.41,7.514l1.6,16.246c0,0,7.941-2.813,14.818-3.364s9.15,1.272,9.15,1.272
					s-2.841-1.403-12.428,0.662c-9.587,2.065-11.452,3.777-11.452,3.777l1.008,16.586c0,0,4.138-1.974,9.981-2.026
					c5.843-0.052,9.675,2.996,9.675,2.996s-3.104-2.557-9.383-1.862c-6.28,0.695-9.952,4.616-9.952,4.616l0.376,14.259
					c0,0,4.459-1.541,8.844-1.738c4.386-0.197,6.382,1.174,6.382,1.174s-5.158-0.177-9.514,0.977
					c-4.357,1.154-6.265,3.128-6.265,3.128L-260.906,225.444z"/>
				<path id="path3329" style="opacity:0.5895;fill:#D66154;enable-background:new    ;" d="M-298.241,37.044
					c-4.41,0.027-8.6,0.72-12.494,1.967c10.566,18.204,31.432,57.652,39.847,98.502c7.319,35.529,8.664,80.877,8.681,109.146
					c7.981,2.403,11.617-7.009,15.51-23.011c0,0,3.88-11.708,7.007-30.056l-13.519-7.035l14.475,1.017
					c2.366-15.977,3.919-35.97,2.174-57.321c-0.845-10.341-2.505-20.269-4.863-29.552l-25.221,6.111l22.083-16.866
					c-10.117-30.347-28.362-51.53-50.765-52.826C-296.307,37.064-297.279,37.038-298.241,37.044L-298.241,37.044z"/>
			</g>
			<path id="path3333" style="opacity:0.5895;fill:#FFB998;enable-background:new    ;" d="M421.279,77.245
				c-9.673,1.391-13.342,8.831-7.759,17.303C465.554,173.509,466.387,68.342,421.279,77.245z"/>
			<path id="path3335" style="opacity:0.5895;fill:#FFB998;enable-background:new    ;" d="M106.441,46.931
				C95.396,50.572,69.183,59.46,75.145,76.533c10.206,29.226,48.14-14.086,58.108-19.786c9.497-5.431,32.601-6.962,36.037-19.554
				C176.934,9.182,114.428,34.71,106.441,46.931z"/>
			<path id="path3337" style="opacity:0.5895;fill:#FFB998;enable-background:new    ;" d="M30.881,231.303
				c-1.132,13.712-1.369,27.691,0.061,41.411c0.816,7.828,2.399,15.932,4.145,23.607c1.848,8.123,13.263,29.135,5.883,36.651
				c-1.185,1.207-3.922,0.553-5.365,0.329c-14.022-2.176-16.409-25.462-18.441-36.198c-4.114-21.735-6.285-46.694-1.981-68.542
				c1.029-5.225,10.884-24.62,17.069-12.373C34.728,221.089,29.211,226.334,30.881,231.303L30.881,231.303z"/>
			<path id="path3339" style="opacity:0.5895;fill:#FFB998;enable-background:new    ;" d="M479,265.662
				c1.862,7.983,0.666,16.173-0.671,24.142c-1.632,9.73-8.012,19.829-6.828,29.957c0.318,2.72,3.615,4.405,5.669,5.432
				c13.253,6.626,14.5-17.951,15.362-25.431C495.948,270.144,479,233.559,479,265.662z"/>
		</g>
	</g>
</g>
<g id="OBJECTS">
	<g>
		<defs>
			<path id="rect3283_1_" d="M0.862,0h498.277C499.614,0,500,0.386,500,0.862v498.277c0,0.476-0.386,0.862-0.862,0.862H0.862
				C0.386,500,0,499.614,0,499.138V0.862C0,0.386,0.386,0,0.862,0z"/>
		</defs>
		<clipPath id="rect3283_00000088837468298182349550000001050024745581520063_">
			<use xlink:href="#rect3283_1_"  style="overflow:visible;"/>
		</clipPath>
		<g id="layer8" style="clip-path:url(#rect3283_00000088837468298182349550000001050024745581520063_);">
			<g id="g3444" transform="matrix(1.4136208,0,0,1.4136208,-70.581886,9.6498116)">
				<g id="g3366">
					<path id="path3341" style="fill:#1C2031;" d="M201.45,445.371c-3.475,7.476-3.566,12.372-1.92,16.254
						c1.646,3.882,6.919,4.252,10.638,6.927c3.719,2.675,2.804,6.077,0.671,8.395c-2.134,2.318-6.218,3.278-13.534,0.713
						c-7.315-2.565-3.231-6.488-9.144-8.683c-5.913-2.195-13.655-6.57-17.435-9.218c-3.78-2.647-5.517-6.282-2.804-12.99
						c2.713-6.707,7.681-10.795,7.681-10.795L201.45,445.371z"/>
					<path id="path3343" style="fill:#9CA1BA;" d="M169.736,478.145c0.129,3.414,0.453,4.403,1.951,4.68
						c1.498,0.276,9.839-0.558,11.218-0.184c1.379,0.373,2.565,0.878,5.884,2.837c3.319,1.959,10.809,6.571,14.516,7.299
						c3.707,0.727,5.291,0.815,7.942-0.674c2.651-1.489,3.944-4.622,3.944-4.622s-25.918-11.304-34.237-12.687
						C172.635,473.411,169.736,478.144,169.736,478.145L169.736,478.145z"/>
					<path id="path3345" style="fill:#4B506B;" d="M169.337,458.28c-3.109,11.988-2.408,16.076,0.091,20.013
						c2.499,3.937,10.333,1.879,15.728,4.033c5.395,2.153,9.632,5.843,16.643,8.669c7.011,2.826,13.838-1.317,14.783-3.799
						c0.945-2.483,2.256-8.449-4.084-11.44c-6.34-2.99-10.821-6.9-12.619-9.053c-1.798-2.154-4.694-11.975-4.694-11.975
						L169.337,458.28z"/>
					<path id="path3348" style="fill:#265A77;" d="M231.354,262.853l0.884,21.947c0,0,11.552,68.364,11.247,76.471
						c-0.305,8.107-5.243,14.307-5.243,14.307l-35.386,73.574c0,0-7.834,0.686-16.155-5.116
						c-8.321-5.802-14.661-19.286-14.661-19.286l34.352-66.279l-21.489-83.946L231.354,262.853z"/>
					<path id="path3350" style="fill:#1B394F;" d="M208.779,304.87l13.777,61.094l-36.852,78.679l2.865,3.086l37.095-83.041
						l-14.814-66.869L208.779,304.87z"/>
					<path id="path3352" style="fill:#9CA1BA;" d="M195.924,457.101l-10.045,3.652c0.334,5.703,2.47,8.861,5.207,11.102
						c2.737,2.241,9.795,6.891,12.975,8.826c3.179,1.935,8.954-0.775,7.963-4.35c-0.099-0.356-0.24-0.691-0.42-1.012
						c-5.866-2.925-10.012-6.567-11.725-8.617C198.639,465.218,196.898,460.144,195.924,457.101L195.924,457.101z"/>
					<path id="path3354" style="fill:#1B394F;" d="M173.412,422.103l-1.371,2.646c0,0,6.339,13.483,14.66,19.285
						c8.321,5.802,16.156,5.117,16.156,5.117l1.193-2.48c-8.395-0.886-15.74-3.484-20.371-8.197
						C179.49,434.21,174.985,425.345,173.412,422.103L173.412,422.103z"/>
					<path id="path3356" style="fill:#336C8B;" d="M161.858,284.821c0,0-3.658,9.684-4.267,17.393
						c-0.61,7.709,6.31,29.176,7.773,37.323c1.463,8.148,4.999,57.638,4.877,68.817c-0.122,11.179-1.219,23.51-3.17,27.694
						c-1.951,4.184,0.671,2.867,0.244,8.148c-0.427,5.281-0.823,9.026-1.585,13.278c-0.762,4.252,2.957,4.307,10.15,5.281
						c7.194,0.974,17.801-1.097,20.544-2.099c2.743-1.001,3.383-1.125,3.292-5.734c-0.091-4.609,0.579-52.124,2.469-70.147
						c1.89-18.024,2.225-31.96,3.17-43.084c0.945-11.124,7.346-47.089,7.346-47.089l3.17-5.308l-1.646-19.848l-40.723,0.22
						L161.858,284.821z"/>
					<path id="path3358" style="fill:#183C57;" d="M162.563,276.106c0,0,27.402,3.237,42.323,1.097
						c14.92-2.14,27.463-11.296,27.463-11.296l-1.311-7.983l-67.454,11.405L162.563,276.106z"/>
					<path id="path3360" style="fill:#184260;" d="M181.138,270.628c0,0-3.506,7.393-5.121,12.633
						c-1.616,5.24-1.646,10.426-1.25,20.041c0.396,9.615,2.392,55.794,2.971,73.502c0.565,17.254,0.008,82.726-0.021,86.123
						c0.908,0.059,1.847,0.086,2.807,0.076c0.038-4.111,0.463-50.367,0.172-65.309c-0.305-15.623-5.303-102.683-4.48-108.91
						s8.016-17.654,8.016-17.654L181.138,270.628z"/>
					<path id="path3362" style="fill:#184260;" d="M175.395,302.819c0,0,7.681-0.124,12.131-3.909
						c4.45-3.786,3.963-20.328,3.963-20.328l3.261,0.206c0,0,0.335,13.415-4.145,20.054c-4.481,6.639-15.119,6.406-15.119,6.406
						L175.395,302.819z"/>
					<path id="path3364" style="fill:#184260;" d="M199.666,457.21c-3.431,1.423-10.167,3.584-19.105,3.398
						c-8.128-0.169-12.626-0.99-14.891-1.598c0.397,2.746,4.012,2.905,10.209,3.744c7.194,0.974,17.802-1.098,20.545-2.1
						C198.611,459.857,199.457,459.61,199.666,457.21z"/>
				</g>
				<g id="g3406">
					<path id="path3368" style="fill:#DD7467;" d="M123.806,120.956l-1.57-10.829c0,0,2.179-9.108,1.89-11.81
						c-0.29-2.702-1.402-7.969-1.707-10.226c-0.305-2.256,1.067-6.413,0.229-7.38c-0.838-0.967-2.926,1.269-4.496,2.867
						c-1.57,1.598-1.997,3.635-1.585,5.679c0.412,2.044-0.076,4.156-0.594,5.329c-0.518,1.173-1.631-0.631-1.631-0.631l-3.627-8.395
						c0,0-4.13-0.329-8.748,2.579c-4.618,2.908-8.885,12.503-8.535,13.676c0.35,1.173,3.322,7.16,5.578,10.294
						c2.256,3.134,3.353,3.086,4.465,5.034s1.981,6.09,1.981,6.09s0-0.075,6.264,0.37
						C117.984,124.049,123.806,120.956,123.806,120.956L123.806,120.956z"/>
					<path id="path3370" style="fill:#DD7467;" d="M110.714,85.56c0,0-3.963-18.696-5.395-19.053
						c-1.433-0.357-2.987,0.357-2.972,2.058c0.015,1.701,2.499,14.718,2.149,15.459c-0.35,0.741-1.128,0.144-2.027-0.967
						c-0.899-1.111-7.315-15.28-8.794-15.671c-1.478-0.391-4.679,0.789-3.429,2.551c1.25,1.763,8.352,16.995,8.352,16.995
						s-8.946-13.381-10.668-14.053c-1.722-0.672-2.667,3.217-1.981,4.465c0.686,1.248,9.693,16.556,9.693,16.556l-5.89-7.518
						c0,0-1.909-3.371-3.62-1.164c-1.273,1.643-0.259,3.409,1.174,6.159c1.433,2.75,6.645,12.036,6.645,12.036
						s3.429,0.295,7.757-2.64C106.035,97.836,110.714,85.56,110.714,85.56L110.714,85.56z"/>
					<path id="path3372" style="fill:#FFE1C3;" d="M181.879,270.125c0,0,12.84,4.96,24.571,4.06
						c11.731-0.901,20.014-9.145,20.014-9.145s-2.125-32.686-4.157-41.374c-2.032-8.688-28.889-77.476-28.889-77.476l-28.567,15.456
						c0,0-2.094,22.71,2.74,46.598C172.426,232.132,181.879,270.125,181.879,270.125L181.879,270.125z"/>
					<path id="path3374" style="fill:#FFB28A;" d="M225.965,258.009c-3.525,2.081-9.774,5.143-18.869,7.336
						c-9.678,2.334-20.252,0.711-26.576-0.746c0.759,3.096,1.359,5.525,1.359,5.525s12.839,4.961,24.57,4.06
						c11.731-0.901,20.014-9.144,20.014-9.144S226.268,262.129,225.965,258.009L225.965,258.009z"/>
					<path id="path3376" style="fill:#3B405E;" d="M202.334,237.064c2.679,9.893,1.54,36.663,1.108,44.173
						c-0.431,7.51-2.494,11.112-2.494,11.112s-16.103,6.069-32.453-0.804c-16.35-6.873-29.898-16.489-29.898-16.489
						s12.439-26.978,13.302-34.723c0.862-7.745,2.617-7.441-2.402-13.939c-5.019-6.498-17.058-20.147-25.002-36.344
						c-7.944-16.198-4.095-22.059,1.786-29.222c5.881-7.164,23.216-4.808,23.216-4.808s46.278-17.098,50.681-14.563
						c4.403,2.536,9.483,7.274,12.285,18.913c2.802,11.639,11.516,63.474,16.165,71.885c4.649,8.411,7.698,16.267,14.379,21.227
						c6.682,4.96,12.162,3.547,10.253,9.214c-1.909,5.667-12.07,19.939-17.735,22.945c-5.665,3.007-12.101,0.374-12.101,0.374
						s-4.126-25.024-5.204-36.192c-1.078-11.168-2.833-17.916-2.833-17.916s-11.947-48.718-15.026-60.994
						c-3.079-12.276-11.854-20.493-11.854-20.493l-34.67,12.554c0,0,21.061,27.213,27.496,37.564
						C187.77,210.89,202.334,237.064,202.334,237.064L202.334,237.064z"/>
					<path id="path3378" style="fill:#131C2F;" d="M151.125,193.002c0,0,18.019,29.796,19.398,36.692
						c1.379,6.896-7.35,59.252-7.35,59.252l-2.974-0.892c0,0,9.096-48.137,8.923-54.286c-0.172-6.149-2.436-7.982-4.074-11.106
						c-1.638-3.123-16.1-28.244-16.1-28.244L151.125,193.002z"/>
					<path id="path3380" style="fill:#484E75;" d="M136.377,156.223c9.236,6.934,13.092,20.596,14.6,27.749
						s2.378,7.338,1.219,10.212c-1.158,2.874-18.304,10.672-25.132,11.892c-6.828,1.221-15.21-1.187-18.639-3.045
						c-3.429-1.859-5.349-3.669-6.721-9.266c-1.372-5.596-3.094-16.254,5.487-22.249c8.58-5.994,18.929-11.988,22.205-13.127
						C132.673,157.252,136.377,156.223,136.377,156.223L136.377,156.223z"/>
					<path id="path3382" style="fill:#656B91;" d="M202.334,237.064c0,0-22.138-28.89-33.161-41.707
						c-11.023-12.817-23.924-27.158-28.635-33.06c-4.711-5.903-0.493-15.865,2.802-23.25c3.295-7.385,10.869-22.876,26.018-19.592
						c15.149,3.284,30.483,13.981,34.639,20.451c4.157,6.471,6.528,19.897,8.344,29.472c1.817,9.574,3.048,62.532,3.048,62.532
						s-13.117-48.247-19.213-62.033c-6.097-13.787-5.237-13.758-12.564-16.8c-7.327-3.042-15.794,0.962-15.64,4.565
						c0.154,3.603,7.174,13.884,15.334,27.296c8.159,13.413,13.794,33.628,15.919,39.282
						C201.348,229.873,202.334,237.064,202.334,237.064L202.334,237.064z"/>
					<path id="path3384" style="fill:#38BBA3;" d="M183.611,153.077c0,0,6.928,4.621,10.146,13.787
						c3.218,9.166,6.543,24.109,6.805,27.262c0.262,3.152,5.619,3.062,7.867,2.723c2.248-0.339,4.034-1.393,3.849-4.566
						c-0.185-3.173,0.169-12.256-4.495-21.117c-4.665-8.861-8.283-16.731-10.346-20.077c-2.063-3.346-4.018-4.898-4.018-4.898
						L183.611,153.077z"/>
					<path id="path3386" style="fill:#38BBA3;" d="M157.254,151.484c0.924,5.321,1.986,6.97,6.789,15.533
						c4.803,8.563,13.518,19.038,19.922,30.621c6.404,11.584,5.989,29.894,7.775,31.252c1.786,1.358,9.976,0.831,10.746,0.028
						c0.77-0.804-2.048-21.317-7.159-33.622c-5.111-12.304-9.976-17.646-14.087-25.855c-4.111-8.21-5.758-12.311-5.758-12.311
						L157.254,151.484z"/>
					<path id="path3388" style="fill:#13756C;" d="M157.254,151.484c0.645,3.715,1.363,5.646,3.369,9.385
						c5.349,3.25,5.763,4.607,11.414,4.564c3.118-0.023,5.364-0.413,6.848-0.805c-2.383-4.977-3.402-7.498-3.402-7.498
						L157.254,151.484z"/>
					<path id="path3390" style="fill:#13756C;" d="M193.424,146.197c-0.013,0.006-0.025,0.011-0.037,0.018l-0.008,0.004l-6.863,4.82
						c-1.286,1.122-1.997,1.853-2.311,2.475c0,0.001,0,0.001,0,0.002c1.106,0.851,3.593,2.964,5.945,6.338
						c2.153-1.591,1.48-3.45,3.604-5.955c1.311-1.547,2.63-2.406,3.639-2.881C195.365,147.752,193.458,146.225,193.424,146.197
						L193.424,146.197z"/>
					<path id="path3392" style="fill:#38BBA3;" d="M188.575,130.342c6.423,2.337,7.13,1.352,6.434,5.281s-1.382,5.408,0.098,9.685
						c1.481,4.277,1.905,1.646-0.392,5.639c-2.297,3.993-15.023,11.125-19.345,11.615c-4.322,0.49-12.726-5.438-18.267-7.696
						c-5.541-2.258-6.194-0.901-6.749-5.119s1.415-3.444,0.337-7.98c-1.078-4.536-1.437-5.354,1.459-7.613
						C155.046,131.895,188.575,130.342,188.575,130.342L188.575,130.342z"/>
					<path id="path3394" style="fill:#585E84;" d="M135.157,192.414c0,0,1.737-10.157,0.214-20.452
						c-1.524-10.294-3.825-15.356-5.258-21.35c-1.433-5.994-0.838-9.801-1.829-11.817c-0.991-2.016-2.713-3.875-2.713-3.875
						l-22.068,1.029c0,0-4.13,5.274-4.846,8.052c-0.716,2.778,0.061,27.433-0.716,36.603c-0.777,9.17,0.808,10.123,3.688,13.902
						c2.88,3.779,1.311,5.178,7.239,5.891c5.929,0.713,8.123,1.008,13.793,0.178C128.33,199.746,135.158,192.414,135.157,192.414
						L135.157,192.414z"/>
					<path id="path3396" style="fill:#232951;" d="M103.503,135.95c6.897,3.398,16.879,2.863,20.476,1.889
						c3.597-0.974,4.039-1.667,4.45-3.059c0.411-1.392,0.198-8.916-0.183-11.275c-0.381-2.359-2.591-4.931-9.068-5.466
						c-6.477-0.535-13.518,0.926-16.185,2.298c-2.667,1.372-3.109,3.031-2.804,7.359c0.305,4.328-0.457,4.52,0.076,6.227
						C100.799,135.631,103.503,135.95,103.503,135.95L103.503,135.95z"/>
					<path id="path3398" style="fill:#131C2F;" d="M139.361,273.366c-0.214,0.47-0.764,1.691-0.764,1.691
						s13.547,9.616,29.896,16.488c16.35,6.872,32.453,0.803,32.453,0.803s0.471-0.844,1.008-2.51
						c-2.785,0.764-7.283,1.719-13.961,2.359c-12.738,1.222-19.936-3.425-25.195-6.422
						C157.898,282.984,141.633,274.544,139.361,273.366L139.361,273.366z"/>
					<path id="path3400" style="fill:#131C2F;" d="M251.629,257.974c-0.755,2.702-2.509,8.337-5.055,12.643
						c-3.47,5.868-9.527,12.269-14.527,13.025c-3.222,0.488-6.874,0.004-9.07-0.4c0.203,1.254,0.449,2.775,0.449,2.775
						s6.434,2.634,12.1-0.373c5.666-3.007,15.827-17.278,17.736-22.945C254.168,260.006,253.394,258.913,251.629,257.974
						L251.629,257.974z"/>
					<path id="path3402" style="fill:#131C2F;" d="M171.002,255.485c8.535,1.486,25.627,1.91,25.627,1.91l-0.819,1.95
						c0,0-9.096-0.316-16.036-1.056c-6.94-0.74-9.462-1.305-9.462-1.305L171.002,255.485z"/>
					<path id="path3404" style="fill:#131C2F;" d="M234.545,243.284c-4.267,7.615-11.322,10.918-11.322,10.918l1.293,1.629
						c0,0,5.13-3.083,8.967-7.738c0.937-1.137,1.656-2.096,2.213-2.898C235.303,244.572,234.921,243.934,234.545,243.284
						L234.545,243.284z"/>
				</g>
				<g id="g3442">
					<path id="path3408" style="fill:#13756C;" d="M154.454,133.599c-2.499,0.302-3.688,2.147-1.417,3.587
						c2.271,1.44,3.414,2.466,7.384,3.992c3.97,1.526,10.158,2.486,15.301,1.752c5.144-0.734,9.259-4.365,12.772-5.271
						c3.513-0.905,4.13-1.756,4.366-3.302c0.236-1.547,1.074-2.366-2.065-2.452c-3.14-0.086-22.548,0.147-27.753,0.264
						C157.838,132.286,154.454,133.599,154.454,133.599L154.454,133.599z"/>
					<path id="path3410" style="fill:#CB6558;" d="M152.528,113.14c0,0-1.809-4.16-4.388-3.661
						c-2.579,0.499-3.733,3.558-3.133,6.152c0.6,2.595,2.063,6.173,4.118,7.621c2.055,1.448,4.249-0.097,4.249-0.097
						s0.039-0.533,0.069-3.696C153.474,116.296,152.528,113.14,152.528,113.14L152.528,113.14z"/>
					<path id="path3412" style="fill:#CB6558;" d="M189.58,112.672c0,0,1.809-4.16,4.388-3.661c2.579,0.499,3.733,3.558,3.133,6.152
						c-0.6,2.594-2.063,6.173-4.118,7.621c-2.055,1.448-4.249-0.097-4.249-0.097s-0.039-0.533-0.069-3.696
						C188.634,115.827,189.58,112.672,189.58,112.672L189.58,112.672z"/>
					<path id="path3414" style="fill:#A03C2F;" d="M148.367,112.193c-2.309-0.13-1.84,4.365-1.04,6.584
						c0.8,2.219,2.53,3.666,3.521,3.705c0.991,0.039,1.356-2.056,0.796-4.998C151.083,114.542,149.956,112.058,148.367,112.193
						L148.367,112.193z"/>
					<path id="path3416" style="fill:#A03C2F;" d="M191.176,113.667c1.383-1.797,2.968-1.956,3.799-1.049
						c0.831,0.907,1.071,2.483-0.13,4.845c-1.2,2.363-1.825,4.022-3.178,4.741c-1.353,0.718-1.863-0.463-1.863-0.463
						L191.176,113.667z"/>
					<path id="path3418" style="fill:#DD7467;" d="M171.113,90.211c0,0-15.276,4.788-18.247,12.385
						c-2.971,7.597-2.252,13.192-2.252,13.192s1.759,14.557,3.012,17.548c1.253,2.991,8.336,7.603,10.659,8.742
						c2.323,1.14,6.828,0.916,6.828,0.916s4.505,0.223,6.828-0.916c2.323-1.139,9.404-5.751,10.657-8.742
						c1.253-2.991,2.734-17.776,2.734-17.776s0.997-5.367-1.974-12.964C186.387,95,171.113,90.211,171.113,90.211L171.113,90.211z"
						/>
					<path id="ellipse3420" style="fill:#FFFFFF;" d="M161.001,117.184c0.806,0,1.459,1.157,1.459,2.584s-0.653,2.584-1.459,2.584
						c-0.806,0-1.459-1.157-1.459-2.584S160.196,117.184,161.001,117.184z"/>
					<path id="path3422" style="fill:#3B405E;" d="M193.069,111.903c-2.056,0.846-3.433,1.361-5.25-0.551
						c-1.817-1.912-1.024-2.162-2.463-5.387c-1.439-3.225-2.371-4.669-4.303-4.822c-1.932-0.152-4.665,1.039-8.183,0.364
						c-3.518-0.675-4.303-1.278-6.004-0.759c-1.701,0.52-4.934,2.511-6.227,4.011c-1.293,1.5-0.739,3.336-2.656,4.472
						c-1.917,1.136-6.781,4.092-6.781,4.092s-2.834-4.587-5.189-3.628c-2.356,0.96-3.018-3.713-2.856-5.3
						c0.162-1.587,0.485-2.629,0.485-2.629s-4.495-5.407-3.741-9.904c0.754-4.496,5.434-8.504,5.434-8.504s0.854-2.487,3.025-5.39
						c2.171-2.903,6.943-6.242,14.241-7.046c7.297-0.804,9.876,0.367,13.448-0.333c3.572-0.7,5.134-1.077,5.827,0.246
						c0.693,1.323,0.362,2.428,0.362,2.428s4.518-1.933,6.427-2.286c1.909-0.353,2.663,1.479,3.064,3.395
						c0.4,1.916,0.393,5.619,0.393,5.619s1.955-1.264,3.526,0.315c1.57,1.58,0.523,6.287-0.085,7.791s-0.947,1.767-0.947,1.767
						s2.009-1.337,2.779,1.774c0.77,3.111-0.647,2.286-1.917,5.82c-1.27,3.533-1.124,3.821-1.686,7.496
						C193.23,108.63,193.069,111.903,193.069,111.903L193.069,111.903z"/>
					<path id="path3424" style="fill:#262A44;" d="M180.043,69.956c-0.392,0.007-0.853,0.06-1.385,0.145
						c0.481,0.449,1.155,1.134,1.967,2.117c1.67,2.022,0.97,2.817,2.35,2.404c1.379-0.412,6.045-2.832,6.982,0.412
						c0.938,3.244,0,6.775,0,6.775s5.129-1.246,4.73,2.43c-0.399,3.676-1.605,6.086-1.605,6.086s1.596,0.37,2.156,1.742
						c0.56,1.372-0.021,1.119-1.918,3.98c-1.897,2.861-1.886,4.889-3.416,4.287c-1.531-0.601-0.162-6.644-0.012-8.482
						c0.151-1.838-0.594-1.555-2.9,0.336c-2.306,1.891-6.584,2.438-7.037,0.707c-0.453-1.731,2.242-3.788,1.434-4.807
						c-0.808-1.018-1.734,1.645-6.26,5.238c-4.526,3.594-9.139,2.852-13.547,2.857c-4.408,0.005-6.327,3.685-7.318,7.113
						c-0.991,3.429-3.124,5.15-3.652,3.627c-0.528-1.523-2.273-0.479-3.836-1.531c-1.562-1.052-0.96-1.353,0.096-4.758
						c1.056-3.404,1.963-4.273,1.963-4.273s-1.38-0.1-2.846,1.408c-1.466,1.508-1.531,2.016-1.531,2.016s-1.295-0.82-3.303-1.938
						c1.103,2.251,2.488,3.918,2.488,3.918s-0.323,1.042-0.484,2.629c-0.162,1.586,0.5,6.26,2.855,5.301
						c2.355-0.96,5.189,3.627,5.189,3.627s4.865-2.956,6.781-4.092c1.917-1.136,1.361-2.971,2.654-4.471
						c1.293-1.5,4.527-3.492,6.229-4.012c1.701-0.52,2.486,0.082,6.004,0.758c3.518,0.675,6.25-0.516,8.182-0.363
						c1.932,0.152,2.863,1.597,4.303,4.822c1.439,3.225,0.648,3.475,2.465,5.387c1.817,1.912,3.192,1.397,5.248,0.551
						c0,0,0.163-3.274,0.725-6.949c0.562-3.675,0.415-3.963,1.686-7.496c1.27-3.533,2.686-2.71,1.916-5.82
						c-0.77-3.111-2.777-1.773-2.777-1.773s0.337-0.262,0.945-1.766c0.608-1.503,1.656-6.211,0.086-7.791
						c-1.57-1.58-3.525-0.315-3.525-0.315s0.008-3.704-0.393-5.619c-0.4-1.916-1.155-3.748-3.064-3.395
						c-1.909,0.353-6.428,2.285-6.428,2.285s0.331-1.105-0.361-2.428C181.53,70.176,180.967,69.94,180.043,69.956L180.043,69.956z"
						/>
					<g id="g3440">
						<path id="ellipse3426" style="fill:#1E2133;" d="M161.001,117.184c0.806,0,1.459,1.157,1.459,2.584s-0.653,2.584-1.459,2.584
							c-0.806,0-1.459-1.157-1.459-2.584S160.196,117.184,161.001,117.184z"/>
						<path id="ellipse3428" style="fill:#1E2133;" d="M181.935,117.184c0.806,0,1.459,1.157,1.459,2.584s-0.653,2.584-1.459,2.584
							c-0.806,0-1.459-1.157-1.459-2.584S181.13,117.184,181.935,117.184z"/>
						<path id="path3430" style="fill:#3B405E;" d="M156.087,113.536c0.12,1.168,0.767,1.335,1.818,0.825
							c1.051-0.509,1.66-1.107,2.956-0.985c1.295,0.122,1.704,1.029,2.662,1.112c0.958,0.083,1.617-0.534,1.453-1.181
							c-0.163-0.647-1.709-1.764-4.077-1.854C158.531,111.364,156.011,112.397,156.087,113.536L156.087,113.536z"/>
						<path id="path3432" style="fill:#3B405E;" d="M178.425,112.329c0.109,1.791,0.925,1.47,2.379,1.239
							c1.453-0.23,2.406-0.698,3.456-0.372c1.05,0.326,1.905,1.367,2.634,0.999c0.729-0.367,1.04-0.801,0.626-1.582
							c-0.414-0.781-2.613-1.531-4.507-1.671C181.12,110.803,178.687,111.239,178.425,112.329L178.425,112.329z"/>
						<path id="path3434" style="fill:#BD3735;" d="M168.045,126.109c1.312,1.842,1.84,2.354,3.13,2.408
							c1.29,0.054,4.061-1.34,3.952-2.116c-0.109-0.776-1.007-1.418-3.168-1.705c-2.161-0.287-3.331,0.421-3.68,0.595
							C167.931,125.465,168.046,126.109,168.045,126.109L168.045,126.109z"/>
						<path id="path3436" style="fill:#FFE0E0;" d="M163.517,129.96c0,0,4.099,1.548,6.461,1.595
							c2.362,0.047,6.347-0.203,7.827-0.519c1.481-0.316,2.351-1.599,2.918-1.247c0.566,0.353-0.972,3.729-2.819,4.877
							c-1.321,0.821-7.739,1.615-10.161,1.028c-2.422-0.588-3.904-2.529-4.536-4.141C162.575,129.94,163.517,129.96,163.517,129.96
							L163.517,129.96z"/>
						<path id="path3438" style="fill:#FFFFFF;" d="M163.988,130.613c-0.313,0.003-0.406,0.333-0.18,0.91
							c0.278,0.71,0.456,0.65,1.268,0.996c0.812,0.346,2.672,0.795,3.217,0.896c0.545,0.101,0.231,0.392-0.893,0.152
							c-1.124-0.24-2.263-0.498-2.637-0.566c-0.373-0.069-0.696-0.048-0.266,0.674c0.002,0.002,0.002,0.004,0.004,0.006
							c0.786,0.902,1.86,1.677,3.24,2.012c1.016,0.247,2.735,0.249,4.486,0.109c2.122-0.259,4.523-0.66,4.809-0.814
							c0.434-0.235,0.717-0.563,0.953-1.084c0.236-0.521,0.563-0.84,0.041-0.83c-0.522,0.01-1.348,0.168-2.121,0.264
							c-0.773,0.096-1.269-0.031-0.873-0.131c0.396-0.099,2.807-0.497,3.596-0.738c0.789-0.242,1.147-0.793,1.082-1.203
							c-0.065-0.41-0.414-0.569-1.127-0.404c-0.107,0.025-0.301,0.067-0.549,0.115c-0.076,0.022-0.155,0.042-0.234,0.059
							c-0.258,0.055-0.595,0.108-0.982,0.158c-1.661,0.276-4.099,0.595-5.916,0.508c-2.762-0.132-6.165-0.849-6.668-1.037
							C164.144,130.628,164.061,130.612,163.988,130.613L163.988,130.613z"/>
					</g>
				</g>
			</g>
		</g>
		<g id="layer7" style="clip-path:url(#rect3283_00000088837468298182349550000001050024745581520063_);">
			<path id="path312699" style="fill:#22263C;" d="M1946.964,1584.133c-10.328,2.004-23.448-4.149-33.065,0.741"/>
			<path id="path312903" style="fill:#22263C;" d="M1951.365,1673.127c-12.032-3.632-21.977,5.183-33.031,6.625"/>
			<g id="g3608" transform="matrix(1.39091,0,0,1.39091,29.637113,-1.3999956)">
				<g id="g3462">
					<path id="path3446" style="fill:#DC581A;" d="M178.169,168.634c-1.432,2.459,0.616,7.863,1.339,10.731s5.958,7.856,8.898,9.249
						c2.94,1.392,6.189-1.621,6.189-1.621s2.386-3.416-0.554-9.173c-2.941-5.757-2.971-7.572-7.882-9.574
						S178.169,168.634,178.169,168.634z"/>
					<path id="path3448" style="fill:#E68C81;" d="M185.333,170.371c0,0-13.24,12.387-16.488,14.777
						c-3.248,2.39-9.191,10.468-11.162,13.496c-1.971,3.028-1.678,6.194-0.662,8.286c1.016,2.092,3.572,4.766,5.496,4.912
						c1.924,0.146,6.112-0.686,6.112-0.686s10.715-5.743,17.597-12.068c6.882-6.325,9.853-12.221,9.853-12.221
						s-0.462-4.87-3.31-9.762C189.921,172.214,185.333,170.371,185.333,170.371z"/>
					<path id="path3450" style="fill:#C9585D;" d="M185.333,170.37c0,0-3.417,3.197-7.205,6.656
						c8.312,8.343,17.486,10.076,17.486,10.076l0.057-2.547c-0.428-1.876-1.276-4.659-2.902-7.451
						C189.92,172.214,185.333,170.37,185.333,170.37L185.333,170.37z"/>
					<path id="path3452" style="fill:#FFD996;" d="M200.302,152.539c-5.107-1.176-7.323,0.466-10.372,4.235
						c-3.048,3.769-11.762,11.861-11.762,11.861s1.309-0.533,3.649,1.912c2.34,2.446,2.001,1.677,4.311,6.907
						c2.309,5.231,8.467,9.54,8.467,9.54s3.387-3.215,5.419-9.914c2.032-6.699,3.649-8.106,3.556-13.565
						C203.479,158.055,200.302,152.539,200.302,152.539L200.302,152.539z"/>
					<g id="g3458">
						<path id="path3454" style="fill:#E68C81;" d="M168.177,155.004c0,0,2.082-3.572,2.916-6.112
							c0.834-2.54,1.312-4.078,2.323-5.603c1.011-1.525,1.763-3.389,2.118-4.551c0.355-1.162-0.071-2.934,0.538-4.889
							c0.609-1.955,1.387-2.84,0.609-3.188s-1.817-0.291-2.88,0.631c-1.063,0.922-1.628,1.577-1.769,2.875
							c-0.14,1.298-0.623,2.101-0.957,2.866c-0.334,0.765-0.652,1.087-1.189,1.707c-0.536,0.62-2.025,1.207-2.551,0.498
							c-0.527-0.709-1.372-3.057-1.556-3.99c-0.184-0.933-0.445-2.057-0.445-2.057s1.572-12.882,1.538-14.297
							c-0.034-1.416-0.614-2.57-1.889-2.753c-1.276-0.183-2.928,13.9-3.59,14.387c-0.662,0.487-0.88,0.389-1.213-0.183
							c-0.334-0.572-0.517-17.972-1.967-18.584c-1.45-0.611-2.812-0.131-3.059,1.633c-0.246,1.764,0.962,16.363,0.933,17.183
							c-0.03,0.82-0.391,1.015-0.937,0.32c-0.546-0.696-2.943-13.032-4.267-14.352c-1.324-1.32-3.697-0.048-3.363,1.357
							c0.333,1.405,3.982,15.289,3.779,15.754c-0.203,0.465-0.836,0.143-1.169-0.23c-0.334-0.374-4.459-7.185-5.787-8.023
							c-1.329-0.837-3.387,1.116-2.242,3.325c1.145,2.209,5.576,8.818,5.968,9.907c0.391,1.089,3.021,10.287,4.755,13.406
							c1.735,3.118,2.127,3.543,2.508,4.277c0.381,0.735,0.43,1.811,0.43,1.811L168.177,155.004z"/>
						<path id="path3456" style="fill:#E68C81;" d="M174.633,198.817c0,0,0.062-8.092-1.247-13.981
							c-1.309-5.889-3.664-19.301-4.003-23.022c-0.339-3.72-0.354-8.224-0.354-8.224l-14.04,2.307c0,0-1.047,3.464-0.647,6.083
							c0.4,2.619-2.109,15.962-0.939,27.643c1.17,11.681-0.046,13.156,2.325,15.824c2.371,2.667,3.372,5.057,4.819,5.494
							c1.447,0.436,3.464-1.06,6.605-2.425S174.633,198.817,174.633,198.817L174.633,198.817z"/>
					</g>
					<path id="path3460" style="fill:#C9585D;" d="M175.856,179.089c-1.155,1.043-2.279,2.052-3.307,2.955l1.023,11.58
						L175.856,179.089z"/>
				</g>
				<g id="g3492">
					<path id="path3464" style="fill:#DC581A;" d="M272.044,188.987c-0.231,2.972-2.802,4.344-6.728,8.327
						c-3.926,3.984-20.737,5.529-20.737,5.529s3.649-4.822,8.852-10.35c5.204-5.529,8.067-7.129,10.669-6.88
						C266.702,185.862,272.044,188.987,272.044,188.987L272.044,188.987z"/>
					<path id="path3466" style="fill:#E68C81;" d="M244.573,200.534c0,0,11.255,19.848,12.742,23.034
						c1.487,3.186,3.034,9.974,4.461,14.533c1.428,4.559,7.971,20.787,9.875,25.753c1.904,4.966,4.422,14.431,4.422,14.431
						s1.923,0.627,5.096,0.237c3.173-0.39,6.364-4.593,6.364-4.593s-7.495-38.668-11.035-47.752
						c-3.155-8.098-11.134-42.197-11.134-42.197s-6.542,2.133-11.618,4.286S244.573,200.534,244.573,200.534z"/>
					<path id="path3468" style="fill:#C9585D;" d="M266.28,187.829l-20.273,11.857l0.898,4.979c0.684,1.214,1.506,2.675,2.35,4.178
						c8.635-1.902,15.627-8.569,19.094-12.467C267.399,192.504,266.812,190.066,266.28,187.829L266.28,187.829z"/>
					<path id="path3470" style="fill:#FFD996;" d="M256.911,162.917c3.094,0.312,3.849,2.127,5.019,3.873
						c1.17,1.746,10.115,22.197,10.115,22.197s-4.264,0.145-7.99,3.409c-3.726,3.263-7.066,6.852-11.085,9.159
						c-4.018,2.307-8.39,1.289-8.39,1.289s0.015-12.048,0.554-18.331c0.539-6.284,0.616-7.004,2.186-12.332
						C248.89,166.852,256.911,162.917,256.911,162.917L256.911,162.917z"/>
					<g id="g3490">
						<path id="path3472" style="fill:#E68C81;" d="M293.188,292.637c-0.414,2.258-0.669,4.412-1.758,5.602
							c-1.089,1.19-3.952,0.887-3.952,0.887s0.98-4.722,1.557-6.349c0.577-1.626,2.428-1.577,2.95-1.421
							C292.508,291.513,293.188,292.637,293.188,292.637L293.188,292.637z"/>
						<path id="path3474" style="fill:#E68C81;" d="M286.904,271.603c0,0,5.545,16.401,6.002,18.64
							c0.457,2.239,0.588,2.043-0.25,3.361c-0.838,1.318-2.504,1.43-5.966,0.985c-3.462-0.446-7.892-0.813-8.883-1.979
							c-0.991-1.166-0.043-1.793-0.109-3.895c-0.065-2.102-1.463-13.339-1.463-13.339s0.113-3.273,4.272-4.233
							C284.666,270.182,286.904,271.603,286.904,271.603L286.904,271.603z"/>
						<path id="path3476" style="fill:#E68C81;" d="M276.236,275.375c0,0-1.618,4.009-2.641,7.169s-0.969,4.419-0.925,6.28
							c0.043,1.862,0.392,3.532-0.142,5.678c-0.533,2.146-1.459,3.679-0.034,3.65c1.426-0.03,2.286-1.156,3.168-2.043
							c0.882-0.887,0.969-1.372,1.404-3.503c0.435-2.131,2.264-3.268,2.809-4.125c0.544-0.857,1.154-2.391,0.925-6.687
							c-0.229-4.296-0.697-7.598-0.697-7.598L276.236,275.375z"/>
						<path id="path3478" style="fill:#E68C81;" d="M290.331,292.434c-0.457,3.801-0.751,6.295-2.166,7.578
							c-1.415,1.283-5.182,2.704-6.161,2.288c-0.98-0.416-0.49-3.527,1.208-5.531c1.698-2.004,2.166-4.007,2.841-5.007
							c0.675-0.999,1.023-1.489,2.275-0.98C289.58,291.292,290.331,292.434,290.331,292.434L290.331,292.434z"/>
						<path id="path3480" style="fill:#E68C81;" d="M287.348,291.914c0,0-1.078,6.138-1.6,7.451
							c-0.523,1.313-2.123,3.542-3.396,4.997c-1.274,1.455-4.529,2.234-4.877,1.661c-0.348-0.573-0.152-2.729,1.11-4.923
							c1.263-2.195,2.101-3.694,2.602-6.04c0.501-2.347,1.383-4.669,2.624-4.62C285.051,290.489,287.348,291.914,287.348,291.914
							L287.348,291.914z"/>
						<path id="path3482" style="fill:#E68C81;" d="M277.507,291.513l-0.163,6.408l-1.862,5.913c0,0-1.916,3.091-2.438,4.149
							c-0.523,1.058-0.751,2.601,0.261,2.934c1.012,0.333,2.395-0.921,3.331-1.876c0.936-0.955,3.592-4.958,3.592-4.958
							s2.286-5.32,2.645-6.52c0.359-1.2,0.729-4.909,0.729-4.909s0.61-1.063-1.426-2.219
							C280.141,289.279,277.507,291.513,277.507,291.513L277.507,291.513z"/>
						<path id="path3484" style="fill:#9B1A26;" d="M282.186,296.696c0.152,0.023,0.088,2.54-0.662,5.146
							c-0.75,2.606-2.6,4.312-2.705,4.199c-0.104-0.114,1.437-1.842,2.139-4.359C281.66,299.165,282.034,296.672,282.186,296.696
							L282.186,296.696z"/>
						<path id="path3486" style="fill:#9B1A26;" d="M286.115,294.78c0.133,0.008,0.282,1.707-0.259,3.772
							c-0.541,2.065-1.571,3.437-1.726,3.339c-0.13-0.082,0.678-1.633,1.159-3.487C285.77,296.55,285.962,294.772,286.115,294.78
							L286.115,294.78z"/>
						<path id="path3488" style="fill:#9B1A26;" d="M289.65,293.677c0.131,0.008,0.268,1.274,0.055,2.844
							c-0.214,1.58-0.773,2.742-0.95,2.673c-0.143-0.056,0.179-1.317,0.369-2.751C289.326,294.924,289.459,293.665,289.65,293.677
							L289.65,293.677z"/>
					</g>
				</g>
				<g id="g3522">
					<path id="path3494" style="fill:#E68C81;" d="M214.865,314.339c0,0,12.439,47.346,13.178,51.309
						c0.739,3.963,0.801,21.324,2.155,26.728c1.355,5.404,11.577,48.579,11.577,48.579l13.363-1.067c0,0-2.802-48.399-2.617-54.509
						c0.185-6.111-1.232-12.775-1.693-18.636c-0.462-5.861-4.157-60.19-4.157-60.19L214.865,314.339z"/>
					<path id="path3496" style="fill:#C9585D;" d="M247.388,317.042l-30.57,4.744c0.833,3.182,1.978,7.585,3.078,11.811
						c14.515,2.055,24.107-1.685,28.354-3.951C247.826,323.464,247.646,320.836,247.388,317.042z"/>
					<g id="g3520">
						<path id="path3498" style="fill:#BED0DF;" d="M243.493,489.258c-0.27,5.019,0.154,7.676,1.478,8.885
							c1.324,1.209,9.584,1.112,11.516,1.354c1.932,0.243,1.378-1.614,2.417-1.881c1.039-0.267,1.878,1.285,5.311,1.784
							c3.433,0.499,17.298,0.919,20.554,0.458c3.256-0.461,2.802-4.857,2.802-4.857L243.493,489.258z"/>
						<path id="path3500" style="fill:#4B506B;" d="M233.25,436.611c7.794-4.703,18.354-4.742,24.45-4.723
							c6.096,0.019,8.208,1.166,8.317,4.193c0.109,3.027,1.785,32.998,3.309,37.584c1.524,4.585,5.095,9.386,9.885,11.316
							c4.79,1.93,6.51,0.774,8.012,5.065c1.502,4.291,1.023,6.192-1.154,6.849c-2.177,0.656-21.119,0.127-25.756-0.843
							c-4.637-0.97-7.381-1.137-11.496-2.136c-4.115-0.999-6.249-4.252-5.879-10.483c0.37-6.231,1.219-8.681,1.176-11.444
							C244.071,469.228,233.25,436.611,233.25,436.611L233.25,436.611z"/>
						<path id="path3502" style="fill:#BED0DF;" d="M259.715,431.947c0.127,7.272,0.758,34.498,3.205,42.459
							c2.833,9.214,5.11,9.844,8.436,11.133c3.325,1.289,7.021,2.246,7.021,2.246l2.758-2.127c-0.583-0.178-1.217-0.391-1.924-0.676
							c-4.79-1.93-8.361-6.731-9.885-11.316c-1.524-4.585-3.2-34.557-3.309-37.584C265.922,433.416,264.27,432.21,259.715,431.947
							L259.715,431.947z"/>
						<path id="path3504" style="fill:#4B506B;" d="M278.387,484.615c-1.697,0.705-3.875,2.036-4.717,4.4
							c-1.034,2.904-0.652,6.298-0.34,8.043c5.869,0.199,11.601,0.181,12.74-0.162c2.177-0.656,2.655-2.556,1.152-6.848
							c-1.502-4.291-3.222-3.136-8.012-5.066C278.932,484.869,278.658,484.746,278.387,484.615L278.387,484.615z"/>
						<path id="path3506" style="fill:#22263C;" d="M258.733,438.36c0,0,2.829-0.427,4.862-0.378c2.033,0.05,2.453,0.33,2.65,0.467
							c0.197,0.137,0.21,0.949,0.236,1.307c0.026,0.358,0.011,0.379-0.246,0.398c-0.256,0.019-1.092-0.299-3.967-0.008
							c-2.875,0.292-3.503,0.681-3.71,0.462c-0.206-0.219-0.253-1.229-0.212-1.766C258.387,438.306,258.733,438.359,258.733,438.36
							L258.733,438.36z"/>
						<path id="path3508" style="fill:#22263C;" d="M259.358,445.476c0,0,2.829-0.427,4.862-0.378c2.033,0.05,2.453,0.33,2.65,0.467
							c0.196,0.137,0.21,0.949,0.236,1.307c0.026,0.358,0.011,0.379-0.246,0.398c-0.256,0.019-1.092-0.299-3.967-0.008
							c-2.875,0.292-3.503,0.681-3.71,0.462c-0.206-0.219-0.253-1.229-0.212-1.766S259.358,445.476,259.358,445.476L259.358,445.476
							z"/>
						<path id="path3510" style="fill:#22263C;" d="M260.102,452.011c0,0,2.829-0.428,4.862-0.378c2.033,0.05,2.453,0.33,2.65,0.467
							c0.197,0.137,0.21,0.949,0.236,1.307c0.026,0.358,0.011,0.379-0.246,0.398c-0.255,0.019-1.092-0.299-3.967-0.008
							c-2.875,0.292-3.503,0.681-3.71,0.462c-0.206-0.219-0.253-1.229-0.212-1.766C259.756,451.957,260.101,452.01,260.102,452.011
							L260.102,452.011z"/>
						<path id="path3512" style="fill:#22263C;" d="M260.446,459.199c0,0,2.829-0.427,4.862-0.378c2.033,0.05,2.453,0.33,2.65,0.467
							c0.197,0.137,0.21,0.949,0.236,1.307c0.026,0.358,0.011,0.379-0.246,0.398c-0.255,0.019-1.092-0.299-3.967-0.008
							c-2.875,0.292-3.503,0.681-3.71,0.462c-0.206-0.219-0.253-1.229-0.212-1.766S260.446,459.199,260.446,459.199L260.446,459.199
							z"/>
						<path id="path3514" style="fill:#22263C;" d="M261.059,465.804c0,0,2.829-0.428,4.862-0.378c2.033,0.05,2.453,0.33,2.65,0.467
							c0.197,0.137,0.21,0.949,0.236,1.307c0.026,0.358,0.011,0.379-0.246,0.398c-0.255,0.019-1.092-0.299-3.967-0.008
							c-2.875,0.292-3.503,0.681-3.71,0.462c-0.206-0.219-0.253-1.229-0.212-1.766C260.713,465.75,261.059,465.803,261.059,465.804
							L261.059,465.804z"/>
						<path id="path3516" style="fill:#22263C;" d="M261.896,473.322c0,0,2.657-1.062,4.648-1.477
							c1.991-0.416,2.464-0.239,2.687-0.15c0.223,0.088,0.421,0.876,0.528,1.219c0.107,0.343,0.097,0.367-0.149,0.443
							c-0.245,0.077-1.131-0.042-3.864,0.898c-2.732,0.94-3.255,1.463-3.506,1.297c-0.251-0.166-0.527-1.139-0.61-1.671
							C261.547,473.348,261.896,473.321,261.896,473.322L261.896,473.322z"/>
						<path id="path3518" style="fill:#22263C;" d="M265.325,481.377c0,0,1.971-2.075,3.606-3.283
							c1.635-1.209,2.139-1.246,2.378-1.258c0.239-0.011,0.749,0.62,0.989,0.887c0.241,0.267,0.242,0.293,0.05,0.465
							c-0.19,0.172-1.045,0.435-3.136,2.429c-2.09,1.995-2.347,2.688-2.644,2.642c-0.297-0.047-0.955-0.815-1.252-1.264
							c-0.297-0.449,0.008-0.619,0.008-0.619L265.325,481.377z"/>
					</g>
				</g>
				<g id="g3550">
					<path id="path3524" style="fill:#E68C81;" d="M171.248,298.971c0,0,11.608,59.747,12.439,64.569
						c0.831,4.822,0.616,8.244,1.416,11.847c0.801,3.603,11.208,67.34,11.208,67.34l11.885-1.787c0,0,2.34-20.742,2.371-35.61
						c0.03-14.868-3.171-29.61-3.664-32.617c-0.493-3.007,1.478-10.905,1.108-14.84c-0.37-3.935,1.693-43.882,1.693-43.882
						L171.248,298.971z"/>
					<path id="path3526" style="fill:#C9585D;" d="M173.491,310.534c1.165,6.002,1.944,10.016,3.893,20.09
						c16.445,3.531,26.512,2.344,31.465,1.127c0.198-4.303,0.395-8.503,0.549-11.625L173.491,310.534z"/>
					<g id="g3548">
						<path id="path3528" style="fill:#BED0DF;" d="M188.317,492.015c0,0-0.236,7.212,1.427,8.729
							c1.663,1.517,12.824,2.771,19.321,2.127c6.497-0.644,11.392-0.672,12.378-3.457c0.985-2.785-0.592-5.782-0.592-5.782
							s-5.52-2.795-14.895-3.052C196.579,490.324,188.317,492.015,188.317,492.015L188.317,492.015z"/>
						<path id="path3530" style="fill:#4B506B;" d="M190.889,435.272c5.742-1.254,16.55-1.115,19.983-0.97
							c3.433,0.145,5.111,1.358,5.835,4.15c0.724,2.792-2.402,31.924-1.755,35c0.647,3.076,6.82,18.131,5.789,21.29
							c-1.031,3.159-8.698,3.88-15.565,3.9c-6.866,0.019-13.979-1.871-15.826-3.478s-0.939-3.984,0.169-9.477
							c1.108-5.494,5.388-10.856,5.358-14.909c-0.03-4.053-3.91-28.758-4.68-31.571
							C189.426,436.395,190.889,435.272,190.889,435.272L190.889,435.272z"/>
						<path id="path3532" style="fill:#BED0DF;" d="M205.872,434.21c-3.396-0.003-7.652,0.103-11.242,0.488
							c0.857,5.225,5.58,34.052,5.805,36.676c0.246,2.875-3.633,14.32-3.633,14.32l15.965-0.666c0,0-3.573-9.817-3.773-13.6
							c-0.172-3.248,2.263-29.357,2.988-37.033c-0.348-0.045-0.716-0.077-1.109-0.094
							C209.799,434.257,208.005,434.212,205.872,434.21L205.872,434.21z"/>
						<path id="path3534" style="fill:#4B506B;" d="M202.083,480.675c-8.013,0.015-12.79,6.435-13.766,11.34
							c-0.108,1.408,0.138,2.371,1.033,3.15c1.847,1.607,8.96,3.495,15.826,3.477c6.866-0.019,14.533-0.741,15.564-3.9
							c0.092-0.28,0.123-0.658,0.109-1.109c-1.84-6.185-7.541-12.279-17.768-12.926c-0.339-0.023-0.672-0.03-1-0.03V480.675z"/>
						<path id="path3536" style="fill:#22263C;" d="M195.281,438.074c2.496-0.996,5.189-1.242,7.738-1.327
							c2.789-0.146,5.831-0.057,8.544,1.16c0.583,0.262,0.83,0.871,0.576,1.295c-0.254,0.423-0.82,0.533-1.304,0.311
							c-2.253-1.033-5.028-1.064-7.743-0.986c-2.492,0.121-4.989,0.321-7.151,1.192c-0.507,0.204-1.075,0.057-1.299-0.383
							C194.417,438.896,194.695,438.307,195.281,438.074L195.281,438.074z"/>
						<path id="path3538" style="fill:#22263C;" d="M196.021,446.895c0.03-0.034,0.063-0.072,0.095-0.108
							c0.428-0.456,0.94-0.85,1.5-1.185c1.953-1.17,4.344-1.581,6.579-1.607l0,0c0.011,0,0.026-0.001,0.039-0.001
							c2.282-0.087,4.662,0.458,6.556,1.79c0.252,0.177,0.493,0.368,0.72,0.572c0.285,0.257,0.412,0.565,0.385,0.801
							c-0.011,0.153-0.096,0.282-0.237,0.361c-0.136,0.078-0.312,0.102-0.471,0.076c-0.251-0.026-0.518-0.145-0.743-0.337
							c-0.183-0.157-0.378-0.305-0.586-0.446c-1.56-1.059-3.568-1.512-5.572-1.466c-0.03,0.001-0.058,0.001-0.087,0.003l0,0
							c-2.034,0.058-4.08,0.407-5.718,1.34c-0.476,0.271-0.899,0.58-1.25,0.932c-0.026,0.03-0.054,0.055-0.081,0.08
							c-0.074,0.075-0.154,0.138-0.236,0.188c-0.204,0.218-0.581,0.046-0.752,0.073c-0.16,0.026-0.536-0.437-0.338-0.739
							c0.042-0.111,0.107-0.221,0.196-0.324C196.018,446.897,196.019,446.896,196.021,446.895L196.021,446.895z"/>
						<path id="path3540" style="fill:#22263C;" d="M196.599,454.07c0.026-0.04,0.056-0.082,0.085-0.122
							c0.387-0.512,0.88-0.955,1.431-1.328c1.796-1.217,4.069-1.66,6.119-1.616l0,0c0.151-0.011,0.305-0.023,0.461-0.027
							c2.12-0.083,4.867,0.601,6.496,2.404c0.221,0.245,0.42,0.508,0.586,0.789c0.214,0.36,0.2,0.733,0.041,0.992
							c-0.095,0.167-0.26,0.288-0.448,0.348c-0.182,0.059-0.369,0.058-0.505,0.011c-0.223-0.06-0.409-0.206-0.539-0.433
							c-0.106-0.186-0.239-0.364-0.394-0.532c-1.204-1.31-3.326-1.736-5.286-1.77c-0.169-0.002-0.337-0.002-0.503,0.001l0,0
							c-1.829,0.015-3.709,0.39-5.145,1.349c-0.449,0.3-0.837,0.646-1.138,1.041c-0.023,0.03-0.046,0.059-0.07,0.089
							c-0.063,0.084-0.132,0.15-0.204,0.2c-0.169,0.242-0.551-0.043-0.715-0.039c-0.164,0.003-0.598-0.638-0.437-0.979
							c0.03-0.132,0.082-0.26,0.161-0.377l0.003-0.001L196.599,454.07z"/>
						<path id="path3542" style="fill:#22263C;" d="M197.699,462.363c0.023-0.04,0.042-0.08,0.064-0.119
							c0.298-0.501,0.709-0.94,1.183-1.313c1.534-1.208,3.583-1.677,5.392-1.627l0,0c0.156-0.015,0.314-0.023,0.476-0.03
							c1.932-0.06,4.402,0.741,5.736,2.505c0.181,0.239,0.339,0.494,0.465,0.763c0.163,0.345,0.107,0.692-0.076,0.932
							c-0.111,0.155-0.283,0.264-0.469,0.319c-0.18,0.054-0.356,0.054-0.476,0.011c-0.2-0.054-0.349-0.186-0.438-0.399
							c-0.072-0.175-0.171-0.344-0.29-0.505c-0.932-1.263-2.804-1.766-4.533-1.814c-0.168-0.004-0.334-0.004-0.498,0l0,0
							c-1.593,0.019-3.25,0.41-4.433,1.35c-0.373,0.296-0.684,0.635-0.903,1.018c-0.019,0.03-0.034,0.057-0.051,0.086
							c-0.045,0.081-0.097,0.144-0.152,0.192c-0.117,0.232-0.471-0.051-0.611-0.05c-0.14,0.001-0.6-0.62-0.493-0.951
							c0.011-0.128,0.046-0.253,0.105-0.367l0.002-0.001L197.699,462.363z"/>
						<path id="path3544" style="fill:#22263C;" d="M197.942,471.647c0.023-0.04,0.042-0.08,0.064-0.119
							c0.298-0.501,0.709-0.94,1.183-1.313c1.534-1.208,3.583-1.677,5.392-1.627l0,0c0.156-0.015,0.314-0.023,0.476-0.03
							c1.932-0.06,4.402,0.741,5.736,2.505c0.181,0.239,0.339,0.495,0.465,0.763c0.163,0.345,0.107,0.692-0.075,0.932
							c-0.111,0.155-0.283,0.264-0.469,0.319c-0.18,0.054-0.356,0.054-0.476,0.011c-0.2-0.054-0.349-0.186-0.438-0.399
							c-0.072-0.175-0.171-0.344-0.29-0.505c-0.932-1.263-2.804-1.766-4.533-1.814c-0.168-0.004-0.334-0.004-0.498,0l0,0
							c-1.593,0.019-3.25,0.41-4.433,1.35c-0.373,0.296-0.684,0.635-0.902,1.018c-0.019,0.03-0.034,0.057-0.051,0.086
							c-0.045,0.081-0.097,0.144-0.152,0.192c-0.117,0.232-0.471-0.051-0.611-0.05c-0.14,0.001-0.6-0.62-0.493-0.951
							c0.011-0.128,0.046-0.253,0.105-0.367c0.001,0,0.002-0.001,0.002-0.001L197.942,471.647z"/>
						<path id="path3546" style="fill:#22263C;" d="M198.427,479.646c0.023-0.04,0.042-0.08,0.064-0.119
							c0.298-0.501,0.709-0.94,1.183-1.313c1.534-1.208,3.583-1.677,5.392-1.627l0,0c0.156-0.015,0.314-0.023,0.476-0.03
							c1.932-0.06,4.402,0.741,5.736,2.505c0.181,0.239,0.339,0.495,0.465,0.763c0.163,0.345,0.107,0.692-0.075,0.932
							c-0.111,0.155-0.283,0.264-0.469,0.319c-0.18,0.054-0.356,0.054-0.476,0.011c-0.2-0.054-0.349-0.186-0.438-0.399
							c-0.072-0.175-0.171-0.344-0.29-0.505c-0.932-1.263-2.804-1.766-4.533-1.814c-0.168-0.004-0.334-0.004-0.498,0l0,0
							c-1.593,0.019-3.25,0.41-4.433,1.35c-0.373,0.296-0.684,0.635-0.903,1.018c-0.019,0.03-0.034,0.057-0.051,0.086
							c-0.045,0.081-0.097,0.144-0.152,0.192c-0.117,0.232-0.471-0.051-0.611-0.05c-0.14,0.001-0.6-0.62-0.493-0.951
							c0.011-0.128,0.046-0.253,0.105-0.367c0.001,0,0.002-0.001,0.002-0.001L198.427,479.646z"/>
					</g>
				</g>
				<g id="g3558">
					<path id="path3552" style="fill:#E03C4C;" d="M191.462,234.955c0,0-16.442,11.306-20.507,33.781
						c-4.064,22.474-9.545,49.216-9.545,49.216s2.894,1.192,5.204,1.469c2.309,0.277,4.218-8.424,4.218-8.424l2.032,9.09
						c0,0,11.269,6.748,41.69,7.552c30.421,0.804,41.567-6.873,41.567-6.873l-0.4-8.106l3.633,7.552l3.541-0.97
						c0,0-2.433-36.718-8.344-53.539c-5.912-16.821-14.564-22.835-14.564-22.835L191.462,234.955z"/>
					<path id="path3554" style="fill:#9B1A26;" d="M243.304,307.659c-0.046,0.122-4.191-1.191-11.102-4.276
						c-7.114-3.176-16.216-7.936-24.816-14.597c-8.828-6.837-14.891-13.937-19.007-20.631c-3.847-6.257-5.14-10.491-5.019-10.539
						c0.121-0.049,1.645,4.072,5.602,10.171c4.248,6.548,10.26,13.436,19.032,20.213c8.525,6.587,17.499,11.394,24.507,14.735
						C239.303,305.979,243.351,307.538,243.304,307.659L243.304,307.659z"/>
					<path id="path3556" style="fill:#9B1A26;" d="M234.639,280.384c0.011,0.087-6.136,1.711-14.028,1.089
						c-7.344-0.579-13.315-3.881-13.192-4.111c0.123-0.229,6.081,2.572,13.269,3.123
						C227.876,281.035,234.605,280.126,234.639,280.384L234.639,280.384z"/>
				</g>
				<g id="g3592">
					<path id="path3560" style="fill:#414376;" d="M215.207,84.556c0,0-11.082-2.518-16.024,6.662
						c-4.942,9.18-0.849,19.096-1.546,23.975c-0.697,4.879-5.291,3.87-9.885,10.19c-4.594,6.319-5.508,10.797-2.983,14.344
						c2.526,3.547,5.661,5.281,5.661,5.281s-0.435-1.754-0.522-3.988c-0.087-2.234,1.197-3.125,1.197-3.125s0.131,5.183,4.507,8.103
						c4.376,2.92,7.925,2.057,7.925,2.057l-1.067-2.782c0,0,1.11,2.479,4.855,3.958c3.745,1.479,9.057,1.773,11.626,1.901
						c2.569,0.127,9.384-1.313,9.384-1.313s0.762-7.025,0.544-22.182c-0.218-15.157-5.791-23.485-9.928-29.354
						C214.815,92.413,215.207,84.556,215.207,84.556L215.207,84.556z"/>
					<path id="path3562" style="fill:#383A6A;" d="M210.113,94.441c0,0,1.263-12.688,14.587-16.098
						c13.325-3.41,22.295,7.044,25.365,17.43c3.07,10.385-0.348,15.059,4.529,21.104c4.877,6.045,5.291,3.449,11.191,13.09
						s5.574,17.959,3.44,20.252c-2.134,2.293-3.767,1.842-3.767,1.842l-0.392-3.302c0,0-0.631,3.439-4.659,4.507
						c-4.028,1.068-4.637,0.637-4.637,0.637l3.353-6.927c0,0-2.003,3.253-6.14,4.605c-4.137,1.352-5.312,1.813-5.508,0.51
						c-0.196-1.303-1.415-1.705-1.415-1.705s-1.785,1.577-5.421,1.705c-3.636,0.127-7.098-1.264-7.098-1.264l0.762-18.557
						c0,0-16.111-31.735-20.379-33.959C209.655,96.087,210.113,94.441,210.113,94.441L210.113,94.441z"/>
					<path id="path3564" style="opacity:0.4726;fill:#1C1D3E;enable-background:new    ;" d="M210.354,92.294
						c-11.363,7.469-11.997,14.599-11.33,24.441c0.667,9.842,3.003,6.825-1.682,11.625c-4.685,4.8-7.441,3.259-6.957,10.354
						c0.001,0.022,0.004,0.043,0.006,0.065c0.334-0.606,0.715-0.885,0.715-0.885s0.13,5.184,4.506,8.103
						c4.376,2.92,7.926,2.057,7.926,2.057l-1.066-2.781c0,0,1.109,2.478,4.854,3.957s9.058,1.773,11.627,1.9
						c2.569,0.127,9.385-1.313,9.385-1.313s0.761-7.025,0.543-22.182c-0.034-2.345-0.196-4.526-0.461-6.561
						c3.33,6.173,5.883,11.195,5.883,11.195l-0.762,18.557c0,0,3.462,1.391,7.098,1.264c3.636-0.127,5.422-1.705,5.422-1.705
						s1.218,0.402,1.414,1.705c0.196,1.303,1.371,0.842,5.508-0.51s6.141-4.605,6.141-4.605l-1.424,2.943
						c1.602-2.183,2.329-4.392,2.307-8.207c-0.03-5.237-2.671-8.149-6.311-14.445c-3.64-6.296-4.607-10.275-4.607-10.275
						s-3.115,4.331-12.795,0.33c-9.68-4.001-12.837-14.215-16.602-18.83S210.355,92.294,210.354,92.294L210.354,92.294z"/>
					<path id="path3566" style="fill:#C9585D;" d="M240.148,129.316c0,0-3.179,17.344-2.933,20.85
						c0.246,3.506,5.442,6.668,5.712,6.855c0.27,0.187-8.552,5.137-14.941,5.283c-6.389,0.146-8.822-2.917-10.723-4.361
						c-1.901-1.444-5.427-5.279-5.427-5.279s3.733-1.178,4.595-2.733c0.862-1.555,1.77-10.333,1.77-10.333L240.148,129.316z"/>
					<path id="path3568" style="fill:#7E182B;" d="M239.639,129.554l-21.437,10.043c0,0-0.555,5.332-1.207,8.42
						c0.469,0.296,1.175,0.614,2.234,0.928c3.828,1.135,11.321-1.3,16.41-7.25c1.234-1.442,2.228-2.691,3.029-3.758
						c0.54-3.345,1.078-6.39,1.33-7.793L239.639,129.554z"/>
					<path id="path3570" style="fill:#E68C81;" d="M210.038,93.181c0,0-6.216,4.918-7.925,10.39
						c-1.709,5.472-0.675,7.152-0.24,11.115c0.435,3.963-0.087,6.177,0.588,10.846c0.675,4.669,2.373,7.657,4.387,10.39
						s3.135,4.193,4.267,6.075c1.132,1.881,4.387,1.822,6.151,1.822c1.764,0,8.649-2.312,11.069-3.558
						c3.465-1.784,6.462-4.076,9.24-6.848c3.169-3.163,5.437-8.126,5.437-8.126s2.591,1.274,4.583-0.647
						c1.992-1.92,3.298-7.872,1.176-11.081c-2.123-3.209-4.583-0.554-5.258,0.852c-0.675,1.406-1.578,1.22-1.578,1.22
						s-3.255-0.745-7.794-6.667c-4.539-5.923-1.96-5.536-6.793-9.905c-4.833-4.37-6.956-4.85-6.956-4.85s-1.872-0.475-4.681-1.244
						C212.901,92.196,210.038,93.181,210.038,93.181L210.038,93.181z"/>
					<g id="g3588">
						<ellipse id="ellipse3572" style="fill:#12143D;" cx="207.592" cy="115.19" rx="1.266" ry="2.557"/>
						<ellipse id="ellipse3574" style="fill:#12143D;" cx="225.918" cy="115.19" rx="1.266" ry="2.557"/>
						<path id="path3576" style="fill:#BB4154;" d="M213.188,115.978c0.136,3.148-0.327,3.846-1.459,4.843
							c-1.132,0.997-1.274,1.281-0.963,2.17c0.31,0.889,0.904,1.303,0.904,1.303s-1.933-0.834-1.783-2.361
							c0.149-1.527,1.711-1.28,2.586-2.97C213.347,117.273,213.188,115.978,213.188,115.978L213.188,115.978z"/>
						<path id="path3578" style="fill:#6E2D4C;" d="M210.1,127.698c2.39,0.485,6.847,0.421,9.242-0.098
							c2.395-0.519,3.358-0.742,4.376,0.385s-0.049,3.877-1.524,5.433c-1.475,1.555-5.024,2.249-7.887,1.634
							c-2.863-0.615-4.545-3.417-5.176-4.715C208.5,129.038,209.011,127.446,210.1,127.698L210.1,127.698z"/>
						<path id="path3580" style="fill:#FFFFFF;" d="M221.919,127.173c-0.647,0.005-1.454,0.184-2.576,0.428
							c-2.395,0.519-6.853,0.583-9.242,0.098c-0.228-0.053-0.431-0.025-0.604,0.064c0.094,0.925,0.364,2.126,1.121,2.518
							c1.29,0.666,5.627,0.455,8.125,0.1c2.498-0.355,3.299-0.084,3.637-1.23c0.147-0.501,0.205-1.231,0.223-1.897
							C222.393,127.198,222.167,127.171,221.919,127.173L221.919,127.173z"/>
						<path id="path3582" style="fill:#FFB0C2;" d="M217.907,131.989c-2.264,0.035-3.915,1.823-4.613,2.738
							c0.32,0.137,0.657,0.248,1.014,0.324c2.863,0.615,6.412-0.079,7.887-1.635c0.14-0.148,0.277-0.307,0.408-0.475
							c-0.449-0.229-1.826-0.814-4.398-0.949C218.103,131.988,218.005,131.988,217.907,131.989L217.907,131.989z"/>
						<path id="path3584" style="fill:#383A6A;" d="M203.062,108.492c1.649-2.256,4.866-2.445,6.868-1.029
							c0.314,0.229,0.57,0.483,0.788,0.742c0.379,0.45,0.234,1.039-0.176,1.313c-0.434,0.29-0.995,0.138-1.216-0.154
							c-0.111-0.146-0.218-0.262-0.336-0.335c-1.169-0.827-3.662-0.832-4.491,0.479c-0.206,0.326-0.672,0.587-1.177,0.446
							C202.817,109.812,202.642,109.067,203.062,108.492L203.062,108.492z"/>
						<path id="path3586" style="fill:#383A6A;" d="M222.09,107.05c2.676-1.713,6.372-1.257,8.494,1.025
							c0.471,0.506,0.351,1.24-0.155,1.525c-0.507,0.285-1.066,0.195-1.36-0.128c-1.325-1.456-4.131-1.788-5.824-0.651
							c-0.376,0.252-0.959,0.2-1.389-0.217C221.425,108.188,221.496,107.43,222.09,107.05L222.09,107.05z"/>
					</g>
					<path id="path3590" style="fill:#D86768;" d="M246.561,115.235c-2.659,0.52-3.06,3.623-3.2,5.755
						c-0.141,2.132,1.464,3,2.413,2.97c0.948-0.03,2.491-2.349,2.759-4.343C248.8,117.622,248.595,114.938,246.561,115.235
						L246.561,115.235z"/>
				</g>
				<g id="g3606">
					<path id="path3594" style="fill:#E24F17;" d="M188.171,230.777c0,0-2.2,4.959-0.845,7.404
						c1.355,2.446,11.947,5.688,25.849,7.385c13.902,1.697,25.864-0.055,28.266-1.053c2.402-0.998,1.798-5.394-0.14-8.547
						c-1.938-3.154-30.235-9.604-39.441-8.821C192.653,227.927,188.171,230.777,188.171,230.777L188.171,230.777z"/>
					<path id="path3596" style="fill:#FF9E2B;" d="M200.302,152.538c0,0-1.893,7.871-1.678,12.617
						c0.216,4.746,0.956,2.605-0.707,6.18c-1.663,3.575-4.435,8.098-6.867,16.439c-2.432,8.341,0.893,12.657,1.17,18.768
						c0.277,6.111-3.093,7.878-6.85,11.369c-3.756,3.492-3.311,4.906-1.772,7.871c1.54,2.965,4.572,4.994,4.572,4.994
						s3.05,0.54,6.236,1.039s5.694,2.085,18.334,4.586c12.639,2.501,28.559-0.436,28.559-0.436s4.912-3.262,5.82-7.246
						c0.908-3.984-1.417-4.51-1.047-11.459c0.369-6.949,2.77-10.629,4.91-17.592c2.14-6.963,0.278-15.733,0.324-20.43
						c0.046-4.697,5.604-16.322,5.604-16.322l-13.439-4.877l-1.705-0.229c-2.562,1.447-8.88,4.381-13.781,4.492
						c-6.389,0.145-8.821-2.917-10.723-4.361c-1.184-0.899-2.995-2.725-4.195-3.975l-1.988-0.266L200.302,152.538z"/>
					<path id="path3598" style="fill:#FFD996;" d="M209.55,152.4c-0.707,0.022-1.006,0.232-1.238,0.703
						c-0.414,0.838,4.997,6.619,10.451,10.303c5.454,3.684,12.323,1.695,17.004,0.52c4.681-1.176,11.299-4.738,10.875-5.482
						c-0.302-0.53-2.806-1.34-4.236-1.768c0.281,0.19,0.476,0.314,0.521,0.346c0.269,0.187-8.552,5.138-14.941,5.283
						c-6.389,0.145-8.821-2.917-10.723-4.361c-1.901-1.445-5.426-5.279-5.426-5.279s0.056-0.02,0.09-0.031
						C210.826,152.472,210.07,152.383,209.55,152.4L209.55,152.4z"/>
					<path id="path3600" style="opacity:0.5421;fill:#FF6C13;enable-background:new    ;" d="M198.055,199.669
						c12.677,9.2,38.468,7.146,38.982,4.696c0,0-5.463-8.479-16.886-10.233C207.186,192.142,198.055,199.669,198.055,199.669
						L198.055,199.669z"/>
					<path id="path3602" style="fill:#893819;" d="M233.196,226.367c-0.023,0.071-1.762-0.271-4.55-1.563
						c-3.075-1.425-6.243-3.491-10.044-6.546c-0.4-0.321-0.797-0.646-1.192-0.975c-7.374-6.143-13.052-12.821-12.938-12.929
						c0.115-0.107,5.995,6.365,13.322,12.468c0.392,0.327,0.787,0.65,1.183,0.97c3.814,3.07,6.822,5.111,9.846,6.648
						C231.529,225.816,233.217,226.296,233.196,226.367L233.196,226.367z"/>
					<path id="path3604" style="fill:#893819;" d="M233.134,214.295c0.026,0.156-3.532,1.07-7.502,1.231
						c-3.97,0.161-7.411-1.13-7.357-1.279c0.054-0.148,3.442,0.848,7.332,0.68C229.497,214.759,233.109,214.139,233.134,214.295z"/>
				</g>
			</g>
			<path id="path315866" style="fill:#893819;" d="M1675.583,1586.031c0,0,12.648-8.7,34.096-9.355s32.498,6.09,32.498,6.09"/>
		</g>
	</g>
</g>
</svg>
